<?xml version="1.0" encoding="utf-8"?>
<!-- Generator: Adobe Illustrator 28.1.0, SVG Export Plug-In . SVG Version: 6.00 Build 0)  -->
<svg version="1.1" id="Camada_1" xmlns="http://www.w3.org/2000/svg" xmlns:xlink="http://www.w3.org/1999/xlink" x="0px" y="0px"
	 viewBox="0 0 146 64" style="enable-background:new 0 0 146 64;" xml:space="preserve">
<style type="text/css">
	.st0{fill:#00CB00;}
	.st1{fill:#FFCB00;}
	.st2{fill:#FF0000;}
	.st3{fill:#183EFF;}
</style>
<g>
	<g>
		<polygon class="st0" points="112.3,38.2 134.4,38.2 134.4,40.5 112.7,40.5 112.6,40 		"/>
		<polygon class="st1" points="112.3,38.2 73.6,38.2 73.1,40.5 112.7,40.5 112.6,40 		"/>
		<polygon class="st2" points="34,38.2 33.6,40.5 73.1,40.5 73.6,38.2 		"/>
		<polygon class="st0" points="11.6,38.2 11.6,40.5 33.6,40.5 34,38.2 		"/>
	</g>
	<g>
		<path class="st3" d="M32.2,38.3V14.4h11c1.1,0,2.2,0.2,3.2,0.7c1,0.5,1.9,1.1,2.6,1.9c0.7,0.8,1.2,1.7,1.6,2.7c0.4,1,0.6,2,0.6,3
			c0,1.4-0.3,2.7-0.9,3.9c-0.6,1.2-1.4,2.2-2.5,2.9l5,8.8h-7.2l-4.2-7.3h-2.7v7.3H32.2z M38.8,25.2h4.1c0.4,0,0.8-0.2,1.1-0.7
			c0.3-0.5,0.5-1.1,0.5-1.8c0-0.8-0.2-1.4-0.6-1.9c-0.4-0.5-0.8-0.7-1.2-0.7h-4V25.2z"/>
		<path class="st3" d="M52.6,26.3c0-1.6,0.3-3.1,0.9-4.5c0.6-1.5,1.5-2.7,2.5-3.9c1.1-1.1,2.4-2,3.9-2.7c1.5-0.7,3.2-1,4.9-1
			c1.8,0,3.4,0.3,4.9,1c1.5,0.7,2.8,1.6,3.8,2.8c1,1.1,1.8,2.4,2.4,3.9c0.6,1.5,0.9,2.9,0.9,4.5c0,1.6-0.3,3.1-0.9,4.5
			c-0.6,1.5-1.4,2.7-2.5,3.9c-1.1,1.1-2.4,2-3.9,2.7c-1.5,0.7-3.2,1-4.9,1c-1.8,0-3.4-0.3-4.9-1c-1.5-0.7-2.8-1.6-3.8-2.7
			c-1-1.1-1.8-2.4-2.4-3.9C52.9,29.3,52.6,27.8,52.6,26.3z M64.7,32.7c0.9,0,1.7-0.2,2.4-0.6c0.7-0.4,1.3-0.9,1.7-1.5
			c0.4-0.6,0.7-1.3,1-2c0.2-0.7,0.3-1.5,0.3-2.3c0-1.1-0.2-2.1-0.6-3.1c-0.4-0.9-1-1.7-1.9-2.3c-0.8-0.6-1.9-0.9-3-0.9
			c-0.9,0-1.7,0.2-2.4,0.5c-0.7,0.4-1.3,0.8-1.7,1.4c-0.4,0.6-0.8,1.3-1,2c-0.2,0.7-0.3,1.5-0.3,2.3c0,0.8,0.1,1.6,0.3,2.3
			c0.2,0.7,0.6,1.4,1,2c0.4,0.6,1,1.1,1.7,1.4C63,32.5,63.8,32.7,64.7,32.7z"/>
		<path class="st3" d="M89.4,38.5c-1.5,0-2.8-0.2-4-0.6c-1.2-0.4-2.2-1-3.1-1.7c-0.8-0.7-1.5-1.6-2.1-2.6c-0.6-1-1-2.1-1.2-3.2
			s-0.4-2.4-0.4-3.7V14.4h6.6v12.3c0,0.8,0.1,1.6,0.2,2.3c0.2,0.7,0.4,1.3,0.7,1.9c0.3,0.6,0.8,1,1.3,1.3c0.6,0.3,1.2,0.5,1.9,0.5
			c0.7,0,1.4-0.2,2-0.5c0.6-0.3,1-0.8,1.3-1.4c0.3-0.6,0.6-1.2,0.7-1.9c0.2-0.7,0.2-1.4,0.2-2.2V14.4h6.6v12.3
			c0,1.7-0.2,3.3-0.7,4.7c-0.4,1.4-1.1,2.7-1.9,3.7c-0.9,1.1-2,1.9-3.4,2.5C92.8,38.2,91.2,38.5,89.4,38.5z"/>
		<path class="st3" d="M109.8,26.5v11.7h-6.6V14.4h5.1l9.6,12.1V14.4h6.6v23.9h-5.2L109.8,26.5z"/>
		<path class="st3" d="M127.9,38.3V14.4h6.6v23.9H127.9z"/>
	</g>
	<g>
		<g>
			<g>
				<path class="st3" d="M18.2,13.9H22c1.1,0,2.2,0.2,3.3,0.7c1,0.5,1.9,1.1,2.6,1.9c0.7,0.8,1.3,1.7,1.7,2.7c0.4,1,0.6,2,0.6,3
					c0,1.1-0.2,2.1-0.6,3.1c-0.4,1-0.9,1.9-1.6,2.7c-0.7,0.8-1.5,1.4-2.5,1.9c-1,0.5-2.1,0.7-3.2,0.7h-4"/>
			</g>
		</g>
		<rect x="11.6" y="30.7" class="st2" width="6.6" height="7.4"/>
		<polygon class="st1" points="18.2,30.7 18.2,13.9 11.6,13.9 11.6,38.1 11.6,38.1 11.6,30.7 		"/>
	</g>
	<g>
		<path d="M11.6,49.2v-5.6h2.3c0.3,0,0.6,0.1,0.9,0.3c0.3,0.2,0.5,0.4,0.6,0.7c0.1,0.3,0.2,0.6,0.2,0.8c0,0.3-0.1,0.6-0.2,0.9
			c-0.1,0.3-0.3,0.5-0.6,0.7s-0.5,0.3-0.8,0.3h-1.8v2.1H11.6z M12.1,46.6H14c0.3,0,0.6-0.1,0.8-0.4c0.2-0.3,0.3-0.6,0.3-0.9
			c0-0.4-0.1-0.7-0.3-0.9c-0.2-0.3-0.5-0.4-0.8-0.4h-1.8V46.6z"/>
		<path d="M18.3,45.5c-0.4,0-0.7,0.1-1,0.3c-0.3,0.2-0.5,0.5-0.6,0.8v2.6h-0.5v-4.1h0.5v1c0.1-0.3,0.3-0.5,0.6-0.7
			c0.2-0.2,0.5-0.3,0.8-0.3c0.1,0,0.2,0,0.2,0V45.5z"/>
		<path d="M18.5,47.1c0-0.3,0.1-0.6,0.2-0.8c0.1-0.3,0.2-0.5,0.4-0.7c0.2-0.2,0.4-0.4,0.7-0.5c0.3-0.1,0.5-0.2,0.8-0.2
			c0.4,0,0.7,0.1,1.1,0.3c0.3,0.2,0.6,0.5,0.7,0.8c0.2,0.3,0.3,0.7,0.3,1.1c0,0.4-0.1,0.7-0.3,1.1c-0.2,0.3-0.4,0.6-0.7,0.8
			c-0.3,0.2-0.7,0.3-1.1,0.3c-0.4,0-0.7-0.1-1.1-0.3c-0.3-0.2-0.6-0.5-0.7-0.8C18.5,47.9,18.5,47.5,18.5,47.1z M19.4,48.3
			c0.3,0.3,0.6,0.5,1.1,0.5c0.4,0,0.8-0.2,1.1-0.5c0.3-0.3,0.4-0.7,0.4-1.2c0-0.5-0.1-0.9-0.4-1.2c-0.3-0.3-0.7-0.5-1.1-0.5
			c-0.3,0-0.5,0.1-0.7,0.2c-0.2,0.2-0.4,0.4-0.5,0.6c-0.1,0.3-0.2,0.5-0.2,0.8C19,47.6,19.1,48,19.4,48.3z"/>
		<path d="M23,47.1c0-0.4,0.1-0.7,0.2-1.1c0.2-0.3,0.4-0.6,0.7-0.8c0.3-0.2,0.6-0.3,1-0.3c0.6,0,1.2,0.3,1.6,0.9v-0.9H27v4.2
			c0,0.4-0.1,0.7-0.3,1c-0.2,0.3-0.4,0.5-0.7,0.6c-0.3,0.1-0.6,0.2-1,0.2c-0.5,0-0.8-0.1-1.1-0.2c-0.3-0.2-0.5-0.4-0.7-0.7l0.3-0.3
			c0.2,0.3,0.4,0.4,0.6,0.6c0.3,0.1,0.6,0.2,0.9,0.2c0.2,0,0.4,0,0.6-0.1c0.2-0.1,0.3-0.1,0.5-0.2c0.1-0.1,0.2-0.2,0.3-0.4
			c0.1-0.2,0.1-0.4,0.1-0.6v-0.8c-0.2,0.3-0.4,0.5-0.7,0.6c-0.3,0.2-0.6,0.2-0.9,0.2c-0.4,0-0.7-0.1-1-0.3c-0.3-0.2-0.5-0.5-0.7-0.8
			C23.1,47.8,23,47.5,23,47.1z M26.5,47.8v-1.3c-0.1-0.3-0.3-0.5-0.6-0.7c-0.3-0.2-0.6-0.3-0.9-0.3c-0.3,0-0.6,0.1-0.8,0.3
			c-0.2,0.2-0.4,0.4-0.5,0.6c-0.1,0.3-0.2,0.5-0.2,0.8c0,0.3,0.1,0.6,0.2,0.8c0.1,0.3,0.3,0.5,0.6,0.6c0.2,0.2,0.5,0.2,0.8,0.2
			c0.3,0,0.6-0.1,0.9-0.3C26.3,48.3,26.4,48,26.5,47.8z"/>
		<path d="M30.1,45.5c-0.4,0-0.7,0.1-1,0.3c-0.3,0.2-0.5,0.5-0.6,0.8v2.6H28v-4.1h0.5v1c0.1-0.3,0.3-0.5,0.6-0.7
			c0.2-0.2,0.5-0.3,0.8-0.3c0.1,0,0.2,0,0.2,0V45.5z"/>
		<path d="M30.3,48c0-0.4,0.2-0.7,0.5-0.9c0.3-0.2,0.7-0.3,1.3-0.3c0.4,0,0.8,0.1,1.2,0.2v-0.3c0-0.4-0.1-0.6-0.3-0.8
			c-0.2-0.2-0.5-0.3-0.9-0.3c-0.4,0-0.9,0.2-1.3,0.5l-0.2-0.4c0.5-0.4,1.1-0.6,1.6-0.6c0.5,0,0.9,0.1,1.2,0.4
			c0.3,0.3,0.4,0.7,0.4,1.2v1.9c0,0.1,0,0.1,0,0.2c0,0,0.1,0.1,0.2,0.1v0.4c-0.1,0-0.2,0-0.2,0c-0.1,0-0.2,0-0.3-0.1
			c-0.1-0.1-0.1-0.2-0.1-0.3l0-0.3c-0.2,0.2-0.4,0.4-0.7,0.5s-0.6,0.2-0.9,0.2c-0.4,0-0.7-0.1-1-0.4C30.4,48.7,30.3,48.4,30.3,48z
			 M33.1,48.3c0.1-0.1,0.2-0.3,0.2-0.4v-0.6c-0.4-0.1-0.7-0.2-1.1-0.2c-0.4,0-0.7,0.1-0.9,0.2c-0.2,0.2-0.4,0.4-0.4,0.6
			c0,0.2,0.1,0.5,0.3,0.6c0.2,0.2,0.4,0.3,0.7,0.3c0.3,0,0.5,0,0.7-0.1C32.8,48.6,33,48.5,33.1,48.3z"/>
		<path d="M41,49.2h-0.5v-2.3c0-0.9-0.3-1.4-0.9-1.4c-0.3,0-0.6,0.1-0.8,0.3c-0.2,0.2-0.4,0.5-0.5,0.9v2.5h-0.5v-2.3
			c0-0.5-0.1-0.8-0.2-1.1c-0.1-0.2-0.4-0.3-0.7-0.3c-0.3,0-0.6,0.1-0.8,0.3c-0.2,0.2-0.4,0.5-0.5,0.9v2.5h-0.5v-4.1h0.5V46
			c0.2-0.3,0.4-0.6,0.7-0.7c0.3-0.2,0.6-0.3,0.9-0.3c0.3,0,0.6,0.1,0.8,0.3s0.3,0.5,0.4,0.8c0.4-0.7,0.9-1.1,1.6-1.1
			c0.4,0,0.8,0.2,1,0.5c0.2,0.3,0.3,0.7,0.3,1.3V49.2z"/>
		<path d="M41.6,48c0-0.4,0.2-0.7,0.5-0.9c0.3-0.2,0.7-0.3,1.3-0.3c0.4,0,0.8,0.1,1.2,0.2v-0.3c0-0.4-0.1-0.6-0.3-0.8
			c-0.2-0.2-0.5-0.3-0.9-0.3c-0.4,0-0.9,0.2-1.3,0.5l-0.2-0.4c0.5-0.4,1.1-0.6,1.6-0.6c0.5,0,0.9,0.1,1.2,0.4
			c0.3,0.3,0.4,0.7,0.4,1.2v1.9c0,0.1,0,0.1,0,0.2c0,0,0.1,0.1,0.2,0.1v0.4c-0.1,0-0.2,0-0.2,0c-0.1,0-0.2,0-0.3-0.1
			c-0.1-0.1-0.1-0.2-0.1-0.3l0-0.3c-0.2,0.2-0.4,0.4-0.7,0.5c-0.3,0.1-0.6,0.2-0.9,0.2c-0.4,0-0.7-0.1-1-0.4S41.6,48.4,41.6,48z
			 M44.4,48.3c0.1-0.1,0.2-0.3,0.2-0.4v-0.6c-0.4-0.1-0.7-0.2-1.1-0.2c-0.4,0-0.7,0.1-0.9,0.2c-0.2,0.2-0.4,0.4-0.4,0.6
			c0,0.2,0.1,0.5,0.3,0.6c0.2,0.2,0.4,0.3,0.7,0.3c0.3,0,0.5,0,0.7-0.1C44.1,48.6,44.2,48.5,44.4,48.3z"/>
		<path d="M50.4,49.2c-0.3,0-0.7-0.1-0.9-0.2c-0.3-0.1-0.5-0.2-0.7-0.4c-0.2-0.2-0.3-0.4-0.4-0.6s-0.2-0.5-0.2-0.8
			c0-0.3-0.1-0.5-0.1-0.8v-2.8h0.5v2.8c0,0.2,0,0.5,0.1,0.7c0,0.2,0.1,0.4,0.2,0.6c0.1,0.2,0.2,0.4,0.3,0.5c0.1,0.1,0.3,0.3,0.5,0.3
			c0.2,0.1,0.5,0.1,0.7,0.1c0.3,0,0.5,0,0.7-0.1c0.2-0.1,0.4-0.2,0.5-0.4c0.1-0.1,0.2-0.3,0.3-0.5s0.1-0.4,0.2-0.6
			c0-0.2,0.1-0.4,0.1-0.7v-2.8h0.6v2.8c0,0.3,0,0.6-0.1,0.9c-0.1,0.3-0.1,0.5-0.3,0.8c-0.1,0.2-0.3,0.5-0.5,0.6
			c-0.2,0.2-0.4,0.3-0.7,0.4C51,49.2,50.7,49.2,50.4,49.2z"/>
		<path d="M57.2,49.2h-0.5v-2.3c0-0.5-0.1-0.8-0.2-1.1c-0.1-0.2-0.4-0.3-0.7-0.3c-0.3,0-0.6,0.1-0.9,0.3s-0.5,0.5-0.6,0.8v2.5h-0.5
			v-4.1h0.5V46c0.2-0.3,0.4-0.5,0.7-0.7c0.3-0.2,0.7-0.3,1-0.3c0.2,0,0.4,0,0.6,0.1c0.2,0.1,0.3,0.2,0.4,0.4
			c0.1,0.2,0.2,0.3,0.2,0.6c0,0.2,0.1,0.5,0.1,0.7V49.2z"/>
		<path d="M58.2,44.2v-0.8h0.5v0.8H58.2z M58.2,49.2v-4.1h0.5v4.1H58.2z"/>
		<path d="M61,49.2l-1.7-4.1h0.6l1.4,3.6l1.4-3.6h0.5l-1.7,4.1H61z"/>
		<path d="M65.5,49.3c-0.4,0-0.7-0.1-1.1-0.3c-0.3-0.2-0.6-0.5-0.7-0.8c-0.2-0.3-0.3-0.7-0.3-1.1c0-0.4,0.1-0.7,0.3-1.1
			c0.2-0.3,0.4-0.6,0.7-0.8c0.3-0.2,0.7-0.3,1.1-0.3c0.4,0,0.7,0.1,1.1,0.3c0.3,0.2,0.6,0.5,0.7,0.8c0.2,0.3,0.3,0.7,0.3,1
			c0,0.1,0,0.2,0,0.2H64c0,0.4,0.2,0.8,0.5,1.1c0.3,0.3,0.6,0.4,1,0.4c0.3,0,0.5-0.1,0.8-0.2c0.2-0.1,0.4-0.3,0.5-0.5l0.5,0.1
			c-0.1,0.3-0.4,0.6-0.7,0.7C66.2,49.2,65.9,49.3,65.5,49.3z M63.9,46.9H67c0-0.4-0.2-0.8-0.5-1.1c-0.3-0.3-0.6-0.4-1-0.4
			c-0.4,0-0.8,0.1-1,0.4C64.1,46.1,64,46.5,63.9,46.9z"/>
		<path d="M70.2,45.5c-0.4,0-0.7,0.1-1,0.3c-0.3,0.2-0.5,0.5-0.6,0.8v2.6h-0.5v-4.1h0.5v1c0.1-0.3,0.3-0.5,0.6-0.7
			c0.2-0.2,0.5-0.3,0.8-0.3c0.1,0,0.2,0,0.2,0V45.5z"/>
		<path d="M72.2,49.3c-0.7,0-1.3-0.2-1.7-0.7l0.2-0.4c0.4,0.4,0.9,0.6,1.5,0.6c0.3,0,0.6-0.1,0.8-0.2c0.2-0.1,0.3-0.3,0.3-0.6
			c0-0.1,0-0.3-0.1-0.4c-0.1-0.1-0.2-0.2-0.3-0.2c-0.1,0-0.3-0.1-0.6-0.2c-0.1,0-0.1,0-0.2,0c-0.2-0.1-0.4-0.1-0.6-0.2
			c-0.1-0.1-0.3-0.1-0.4-0.2c-0.1-0.1-0.2-0.2-0.3-0.3c-0.1-0.1-0.1-0.3-0.1-0.4c0-0.4,0.1-0.7,0.4-0.9c0.3-0.2,0.7-0.3,1.1-0.3
			c0.3,0,0.6,0,0.8,0.1c0.2,0.1,0.4,0.2,0.6,0.4l-0.3,0.4c-0.3-0.3-0.7-0.5-1.2-0.5c-0.3,0-0.5,0.1-0.7,0.2
			c-0.2,0.1-0.3,0.3-0.3,0.5c0,0.1,0,0.1,0,0.2c0,0.1,0,0.1,0.1,0.2c0,0,0.1,0.1,0.1,0.1s0.1,0.1,0.2,0.1c0.1,0,0.2,0.1,0.2,0.1
			c0.1,0,0.2,0.1,0.3,0.1c0.1,0,0.2,0.1,0.3,0.1c0.1,0,0.2,0,0.3,0.1c0.1,0,0.2,0.1,0.3,0.1c0.1,0,0.1,0.1,0.2,0.1
			c0.1,0,0.1,0.1,0.2,0.1c0,0,0.1,0.1,0.1,0.1c0,0.1,0.1,0.1,0.1,0.2c0,0.1,0,0.1,0.1,0.2c0,0.1,0,0.1,0,0.2c0,0.4-0.1,0.7-0.4,0.9
			C73,49.2,72.6,49.3,72.2,49.3z"/>
		<path d="M74.5,44.2v-0.8H75v0.8H74.5z M74.5,49.2v-4.1H75v4.1H74.5z"/>
		<path d="M75.7,47.1c0-0.4,0.1-0.7,0.2-1.1c0.2-0.3,0.4-0.6,0.7-0.8c0.3-0.2,0.6-0.3,1-0.3c0.3,0,0.6,0.1,0.9,0.3
			c0.3,0.2,0.5,0.4,0.7,0.7v-2.5h0.5v5.1c0,0.1,0,0.1,0,0.2c0,0,0.1,0.1,0.1,0.1v0.4c-0.1,0-0.2,0-0.2,0c-0.1,0-0.2-0.1-0.3-0.1
			c-0.1-0.1-0.1-0.2-0.1-0.3v-0.4c-0.2,0.3-0.4,0.5-0.7,0.6c-0.3,0.2-0.6,0.2-0.9,0.2c-0.3,0-0.5-0.1-0.8-0.2
			c-0.2-0.1-0.5-0.3-0.6-0.5c-0.2-0.2-0.3-0.4-0.4-0.7C75.8,47.7,75.7,47.4,75.7,47.1z M79.2,47.8v-1.3c-0.1-0.3-0.3-0.5-0.6-0.7
			c-0.3-0.2-0.6-0.3-0.9-0.3c-0.3,0-0.5,0.1-0.8,0.2c-0.2,0.2-0.4,0.4-0.5,0.6c-0.1,0.3-0.2,0.5-0.2,0.8c0,0.3,0.1,0.6,0.2,0.8
			c0.1,0.3,0.3,0.5,0.6,0.6c0.2,0.2,0.5,0.2,0.8,0.2s0.6-0.1,0.9-0.3C79,48.3,79.2,48,79.2,47.8z"/>
		<path d="M80.5,48c0-0.4,0.2-0.7,0.5-0.9c0.3-0.2,0.7-0.3,1.3-0.3c0.4,0,0.8,0.1,1.2,0.2v-0.3c0-0.4-0.1-0.6-0.3-0.8
			c-0.2-0.2-0.5-0.3-0.9-0.3c-0.4,0-0.9,0.2-1.3,0.5l-0.2-0.4c0.5-0.4,1.1-0.6,1.6-0.6c0.5,0,0.9,0.1,1.2,0.4
			c0.3,0.3,0.4,0.7,0.4,1.2v1.9c0,0.1,0,0.1,0,0.2c0,0,0.1,0.1,0.2,0.1v0.4c-0.1,0-0.2,0-0.2,0c-0.1,0-0.2,0-0.3-0.1
			c-0.1-0.1-0.1-0.2-0.1-0.3l0-0.3c-0.2,0.2-0.4,0.4-0.7,0.5c-0.3,0.1-0.6,0.2-0.9,0.2c-0.4,0-0.7-0.1-1-0.4
			C80.6,48.7,80.5,48.4,80.5,48z M83.2,48.3c0.1-0.1,0.2-0.3,0.2-0.4v-0.6c-0.4-0.1-0.7-0.2-1.1-0.2c-0.4,0-0.7,0.1-0.9,0.2
			C81.1,47.5,81,47.7,81,48c0,0.2,0.1,0.5,0.3,0.6c0.2,0.2,0.4,0.3,0.7,0.3c0.3,0,0.5,0,0.7-0.1C82.9,48.6,83.1,48.5,83.2,48.3z"/>
		<path d="M84.7,47.1c0-0.4,0.1-0.7,0.2-1.1c0.2-0.3,0.4-0.6,0.7-0.8c0.3-0.2,0.6-0.3,1-0.3c0.3,0,0.6,0.1,0.9,0.3
			c0.3,0.2,0.5,0.4,0.7,0.7v-2.5h0.5v5.1c0,0.1,0,0.1,0,0.2c0,0,0.1,0.1,0.1,0.1v0.4c-0.1,0-0.2,0-0.2,0c-0.1,0-0.2-0.1-0.3-0.1
			c-0.1-0.1-0.1-0.2-0.1-0.3v-0.4c-0.2,0.3-0.4,0.5-0.7,0.6c-0.3,0.2-0.6,0.2-0.9,0.2c-0.3,0-0.5-0.1-0.8-0.2
			c-0.2-0.1-0.5-0.3-0.6-0.5c-0.2-0.2-0.3-0.4-0.4-0.7C84.7,47.7,84.7,47.4,84.7,47.1z M88.1,47.8v-1.3c-0.1-0.3-0.3-0.5-0.6-0.7
			c-0.3-0.2-0.6-0.3-0.9-0.3c-0.3,0-0.5,0.1-0.8,0.2c-0.2,0.2-0.4,0.4-0.5,0.6c-0.1,0.3-0.2,0.5-0.2,0.8c0,0.3,0.1,0.6,0.2,0.8
			s0.3,0.5,0.6,0.6c0.2,0.2,0.5,0.2,0.8,0.2s0.6-0.1,0.9-0.3C87.9,48.3,88.1,48,88.1,47.8z"/>
		<path d="M91.5,49.3c-0.4,0-0.7-0.1-1.1-0.3c-0.3-0.2-0.6-0.5-0.7-0.8c-0.2-0.3-0.3-0.7-0.3-1.1c0-0.4,0.1-0.7,0.3-1.1
			c0.2-0.3,0.4-0.6,0.7-0.8c0.3-0.2,0.7-0.3,1.1-0.3c0.4,0,0.7,0.1,1.1,0.3c0.3,0.2,0.6,0.5,0.7,0.8c0.2,0.3,0.3,0.7,0.3,1
			c0,0.1,0,0.2,0,0.2H90c0,0.4,0.2,0.8,0.5,1.1s0.6,0.4,1,0.4c0.3,0,0.5-0.1,0.8-0.2c0.2-0.1,0.4-0.3,0.5-0.5l0.5,0.1
			c-0.1,0.3-0.4,0.6-0.7,0.7C92.3,49.2,91.9,49.3,91.5,49.3z M90,46.9h3.1c0-0.4-0.2-0.8-0.5-1.1s-0.6-0.4-1-0.4s-0.8,0.1-1,0.4
			C90.2,46.1,90,46.5,90,46.9z"/>
		<path d="M96.6,48.3v2.5h-0.5v-5.8h0.5v0.8c0.2-0.3,0.4-0.5,0.7-0.6c0.3-0.2,0.6-0.2,0.9-0.2c0.4,0,0.7,0.1,1,0.3s0.5,0.5,0.7,0.8
			c0.2,0.3,0.3,0.7,0.3,1c0,0.4-0.1,0.7-0.2,1.1c-0.2,0.3-0.4,0.6-0.7,0.8s-0.6,0.3-1,0.3c-0.3,0-0.6-0.1-0.9-0.3
			C97,48.8,96.8,48.6,96.6,48.3z M99.5,47.1c0-0.4-0.1-0.8-0.4-1.2c-0.3-0.3-0.7-0.5-1.1-0.5c-0.2,0-0.4,0-0.6,0.1
			c-0.2,0.1-0.4,0.2-0.5,0.4s-0.2,0.3-0.3,0.5v1.3c0.1,0.3,0.3,0.6,0.6,0.7c0.3,0.2,0.5,0.3,0.8,0.3c0.3,0,0.5-0.1,0.8-0.2
			c0.2-0.2,0.4-0.4,0.5-0.6C99.5,47.7,99.5,47.4,99.5,47.1z"/>
		<path d="M100.5,48c0-0.4,0.2-0.7,0.5-0.9c0.3-0.2,0.7-0.3,1.3-0.3c0.4,0,0.8,0.1,1.2,0.2v-0.3c0-0.4-0.1-0.6-0.3-0.8
			c-0.2-0.2-0.5-0.3-0.9-0.3c-0.4,0-0.9,0.2-1.3,0.5l-0.2-0.4c0.5-0.4,1.1-0.6,1.6-0.6c0.5,0,0.9,0.1,1.2,0.4
			c0.3,0.3,0.4,0.7,0.4,1.2v1.9c0,0.1,0,0.1,0,0.2c0,0,0.1,0.1,0.2,0.1v0.4c-0.1,0-0.2,0-0.2,0c-0.1,0-0.2,0-0.3-0.1
			c-0.1-0.1-0.1-0.2-0.1-0.3l0-0.3c-0.2,0.2-0.4,0.4-0.7,0.5c-0.3,0.1-0.6,0.2-0.9,0.2c-0.4,0-0.7-0.1-1-0.4
			C100.6,48.7,100.5,48.4,100.5,48z M103.3,48.3c0.1-0.1,0.2-0.3,0.2-0.4v-0.6c-0.4-0.1-0.7-0.2-1.1-0.2c-0.4,0-0.7,0.1-0.9,0.2
			c-0.2,0.2-0.4,0.4-0.4,0.6c0,0.2,0.1,0.5,0.3,0.6c0.2,0.2,0.4,0.3,0.7,0.3c0.3,0,0.5,0,0.7-0.1C103,48.6,103.1,48.5,103.3,48.3z"
			/>
		<path d="M107,45.5c-0.4,0-0.7,0.1-1,0.3c-0.3,0.2-0.5,0.5-0.6,0.8v2.6H105v-4.1h0.5v1c0.1-0.3,0.3-0.5,0.6-0.7
			c0.2-0.2,0.5-0.3,0.8-0.3c0.1,0,0.2,0,0.2,0V45.5z"/>
		<path d="M107.2,48c0-0.4,0.2-0.7,0.5-0.9c0.3-0.2,0.7-0.3,1.3-0.3c0.4,0,0.8,0.1,1.2,0.2v-0.3c0-0.4-0.1-0.6-0.3-0.8
			c-0.2-0.2-0.5-0.3-0.9-0.3c-0.4,0-0.9,0.2-1.3,0.5l-0.2-0.4c0.5-0.4,1.1-0.6,1.6-0.6c0.5,0,0.9,0.1,1.2,0.4
			c0.3,0.3,0.4,0.7,0.4,1.2v1.9c0,0.1,0,0.1,0,0.2c0,0,0.1,0.1,0.2,0.1v0.4c-0.1,0-0.2,0-0.2,0c-0.1,0-0.2,0-0.3-0.1
			c-0.1-0.1-0.1-0.2-0.1-0.3l0-0.3c-0.2,0.2-0.4,0.4-0.7,0.5c-0.3,0.1-0.6,0.2-0.9,0.2c-0.4,0-0.7-0.1-1-0.4
			C107.4,48.7,107.2,48.4,107.2,48z M110,48.3c0.1-0.1,0.2-0.3,0.2-0.4v-0.6c-0.4-0.1-0.7-0.2-1.1-0.2c-0.4,0-0.7,0.1-0.9,0.2
			c-0.2,0.2-0.4,0.4-0.4,0.6c0,0.2,0.1,0.5,0.3,0.6c0.2,0.2,0.4,0.3,0.7,0.3c0.3,0,0.5,0,0.7-0.1C109.7,48.6,109.9,48.5,110,48.3z"
			/>
		<path d="M117.5,44h-2v5.1h-0.6V44h-2v-0.5h4.6V44z"/>
		<path d="M116.9,47.1c0-0.3,0.1-0.6,0.2-0.8c0.1-0.3,0.2-0.5,0.4-0.7c0.2-0.2,0.4-0.4,0.7-0.5c0.3-0.1,0.5-0.2,0.8-0.2
			c0.4,0,0.7,0.1,1.1,0.3c0.3,0.2,0.6,0.5,0.7,0.8c0.2,0.3,0.3,0.7,0.3,1.1c0,0.4-0.1,0.7-0.3,1.1c-0.2,0.3-0.4,0.6-0.7,0.8
			c-0.3,0.2-0.7,0.3-1.1,0.3c-0.4,0-0.7-0.1-1.1-0.3c-0.3-0.2-0.6-0.5-0.7-0.8C117,47.9,116.9,47.5,116.9,47.1z M117.9,48.3
			c0.3,0.3,0.6,0.5,1.1,0.5s0.8-0.2,1.1-0.5c0.3-0.3,0.4-0.7,0.4-1.2c0-0.5-0.1-0.9-0.4-1.2s-0.7-0.5-1.1-0.5
			c-0.3,0-0.5,0.1-0.7,0.2c-0.2,0.2-0.4,0.4-0.5,0.6c-0.1,0.3-0.2,0.5-0.2,0.8C117.4,47.6,117.6,48,117.9,48.3z"/>
		<path d="M121.4,47.1c0-0.4,0.1-0.7,0.2-1.1c0.2-0.3,0.4-0.6,0.7-0.8c0.3-0.2,0.6-0.3,1-0.3c0.3,0,0.6,0.1,0.9,0.3
			c0.3,0.2,0.5,0.4,0.7,0.7v-2.5h0.5v5.1c0,0.1,0,0.1,0,0.2s0.1,0.1,0.1,0.1v0.4c-0.1,0-0.2,0-0.2,0c-0.1,0-0.2-0.1-0.3-0.1
			c-0.1-0.1-0.1-0.2-0.1-0.3v-0.4c-0.2,0.3-0.4,0.5-0.7,0.6c-0.3,0.2-0.6,0.2-0.9,0.2c-0.3,0-0.5-0.1-0.8-0.2
			c-0.2-0.1-0.5-0.3-0.6-0.5c-0.2-0.2-0.3-0.4-0.4-0.7C121.5,47.7,121.4,47.4,121.4,47.1z M124.9,47.8v-1.3
			c-0.1-0.3-0.3-0.5-0.6-0.7c-0.3-0.2-0.6-0.3-0.9-0.3c-0.3,0-0.5,0.1-0.8,0.2c-0.2,0.2-0.4,0.4-0.5,0.6c-0.1,0.3-0.2,0.5-0.2,0.8
			c0,0.3,0.1,0.6,0.2,0.8c0.1,0.3,0.3,0.5,0.6,0.6c0.2,0.2,0.5,0.2,0.8,0.2s0.6-0.1,0.9-0.3C124.7,48.3,124.8,48,124.9,47.8z"/>
		<path d="M126.2,47.1c0-0.3,0.1-0.6,0.2-0.8c0.1-0.3,0.2-0.5,0.4-0.7c0.2-0.2,0.4-0.4,0.7-0.5c0.3-0.1,0.5-0.2,0.8-0.2
			c0.4,0,0.7,0.1,1.1,0.3c0.3,0.2,0.6,0.5,0.7,0.8c0.2,0.3,0.3,0.7,0.3,1.1c0,0.4-0.1,0.7-0.3,1.1c-0.2,0.3-0.4,0.6-0.7,0.8
			c-0.3,0.2-0.7,0.3-1.1,0.3c-0.4,0-0.7-0.1-1.1-0.3c-0.3-0.2-0.6-0.5-0.7-0.8C126.3,47.9,126.2,47.5,126.2,47.1z M127.2,48.3
			c0.3,0.3,0.6,0.5,1.1,0.5s0.8-0.2,1.1-0.5c0.3-0.3,0.4-0.7,0.4-1.2c0-0.5-0.1-0.9-0.4-1.2c-0.3-0.3-0.7-0.5-1.1-0.5
			c-0.3,0-0.5,0.1-0.7,0.2c-0.2,0.2-0.4,0.4-0.5,0.6c-0.1,0.3-0.2,0.5-0.2,0.8C126.7,47.6,126.9,48,127.2,48.3z"/>
		<path d="M132.4,49.3c-0.7,0-1.3-0.2-1.7-0.7l0.2-0.4c0.4,0.4,0.9,0.6,1.5,0.6c0.3,0,0.6-0.1,0.8-0.2c0.2-0.1,0.3-0.3,0.3-0.6
			c0-0.1,0-0.3-0.1-0.4c-0.1-0.1-0.2-0.2-0.3-0.2c-0.1,0-0.3-0.1-0.6-0.2c-0.1,0-0.1,0-0.2,0c-0.2-0.1-0.4-0.1-0.6-0.2
			c-0.1-0.1-0.3-0.1-0.4-0.2s-0.2-0.2-0.3-0.3c-0.1-0.1-0.1-0.3-0.1-0.4c0-0.4,0.1-0.7,0.4-0.9c0.3-0.2,0.7-0.3,1.1-0.3
			c0.3,0,0.6,0,0.8,0.1c0.2,0.1,0.4,0.2,0.6,0.4l-0.3,0.4c-0.3-0.3-0.7-0.5-1.2-0.5c-0.3,0-0.5,0.1-0.7,0.2
			c-0.2,0.1-0.3,0.3-0.3,0.5c0,0.1,0,0.1,0,0.2c0,0.1,0,0.1,0.1,0.2c0,0,0.1,0.1,0.1,0.1c0,0,0.1,0.1,0.2,0.1c0.1,0,0.2,0.1,0.2,0.1
			c0.1,0,0.2,0.1,0.3,0.1c0.1,0,0.2,0.1,0.3,0.1c0.1,0,0.2,0,0.3,0.1c0.1,0,0.2,0.1,0.3,0.1c0.1,0,0.1,0.1,0.2,0.1
			c0.1,0,0.1,0.1,0.2,0.1c0,0,0.1,0.1,0.1,0.1c0,0.1,0.1,0.1,0.1,0.2c0,0.1,0,0.1,0.1,0.2c0,0.1,0,0.1,0,0.2c0,0.4-0.1,0.7-0.4,0.9
			C133.3,49.2,132.9,49.3,132.4,49.3z"/>
	</g>
</g>
</svg>
